<svg xmlns="http://www.w3.org/2000/svg" xmlns:xlink="http://www.w3.org/1999/xlink" version="1.1" width="256" height="256" viewBox="0 0 256 256" xml:space="preserve">

<defs>
</defs>
<g style="stroke: none; stroke-width: 0; stroke-dasharray: none; stroke-linecap: butt; stroke-linejoin: miter; stroke-miterlimit: 10; fill: none; fill-rule: nonzero; opacity: 1;" transform="translate(1.4065934065934016 1.4065934065934016) scale(2.81 2.81)" >
	<path d="M 90.061 87.939 L 59.696 57.576 c 5.887 -6.407 9.117 -14.664 9.117 -23.419 c 0 -9.257 -3.605 -17.96 -10.151 -24.505 C 52.115 3.105 43.413 -0.5 34.156 -0.5 S 16.196 3.105 9.651 9.651 C 3.105 16.197 -0.5 24.9 -0.5 34.156 c 0 9.257 3.605 17.96 10.151 24.505 c 6.545 6.546 15.249 10.151 24.505 10.151 c 8.755 0 17.011 -3.229 23.419 -9.117 L 87.94 90.06 C 88.233 90.353 88.616 90.5 89 90.5 s 0.768 -0.146 1.061 -0.439 C 90.647 89.474 90.647 88.525 90.061 87.939 z M 11.772 56.541 C 5.793 50.562 2.5 42.613 2.5 34.156 c 0 -8.456 3.293 -16.405 9.272 -22.384 S 25.7 2.5 34.156 2.5 s 16.405 3.293 22.384 9.272 s 9.272 13.929 9.272 22.384 c 0 8.456 -3.293 16.406 -9.272 22.384 c -5.979 5.979 -13.929 9.272 -22.384 9.272 S 17.751 62.52 11.772 56.541 z" style="stroke: none; stroke-width: 1; stroke-dasharray: none; stroke-linecap: butt; stroke-linejoin: miter; stroke-miterlimit: 10; fill: rgb(0,0,0); fill-rule: nonzero; opacity: 1;" transform=" matrix(1 0 0 1 0 0) " stroke-linecap="round" />
	<path d="M 34.387 49.245 c -0.829 0 -1.5 -0.672 -1.5 -1.5 V 19.377 c 0 -0.829 0.671 -1.5 1.5 -1.5 s 1.5 0.671 1.5 1.5 v 28.368 C 35.887 48.573 35.216 49.245 34.387 49.245 z" style="stroke: none; stroke-width: 1; stroke-dasharray: none; stroke-linecap: butt; stroke-linejoin: miter; stroke-miterlimit: 10; fill: rgb(0,0,0); fill-rule: nonzero; opacity: 1;" transform=" matrix(1 0 0 1 0 0) " stroke-linecap="round" />
	<path d="M 48.572 35.061 H 20.203 c -0.829 0 -1.5 -0.671 -1.5 -1.5 s 0.671 -1.5 1.5 -1.5 h 28.368 c 0.828 0 1.5 0.671 1.5 1.5 S 49.4 35.061 48.572 35.061 z" style="stroke: none; stroke-width: 1; stroke-dasharray: none; stroke-linecap: butt; stroke-linejoin: miter; stroke-miterlimit: 10; fill: rgb(0,0,0); fill-rule: nonzero; opacity: 1;" transform=" matrix(1 0 0 1 0 0) " stroke-linecap="round" />
</g>
</svg>